<mxfile host="app.diagrams.net" modified="2024-04-22T19:25:02.499Z" agent="Mozilla/5.0 (Macintosh; Intel Mac OS X 10_15_7) AppleWebKit/537.36 (KHTML, like Gecko) Chrome/123.0.0.0 Safari/537.36" etag="cn3j0JWYoqm110A1Mfuu" version="24.2.7" type="device">
  <diagram name="Page-1" id="fKnFsDthRtxnHBfDPxax">
    <mxGraphModel dx="654" dy="341" grid="1" gridSize="10" guides="1" tooltips="1" connect="1" arrows="1" fold="1" page="0" pageScale="1" pageWidth="850" pageHeight="1100" math="0" shadow="0">
      <root>
        <mxCell id="0" />
        <mxCell id="1" parent="0" />
        <mxCell id="Erd8H5iG9882OvMsZdw3-1" value="Unit tests/Code analysis" style="rounded=0;whiteSpace=wrap;html=1;" vertex="1" parent="1">
          <mxGeometry x="120" y="130" width="120" height="60" as="geometry" />
        </mxCell>
        <mxCell id="Erd8H5iG9882OvMsZdw3-2" value="Publish API" style="rounded=0;whiteSpace=wrap;html=1;" vertex="1" parent="1">
          <mxGeometry x="360" y="80" width="120" height="60" as="geometry" />
        </mxCell>
        <mxCell id="Erd8H5iG9882OvMsZdw3-3" value="" style="endArrow=classic;html=1;rounded=0;exitX=1;exitY=0.5;exitDx=0;exitDy=0;" edge="1" parent="1" source="Erd8H5iG9882OvMsZdw3-1">
          <mxGeometry width="50" height="50" relative="1" as="geometry">
            <mxPoint x="380" y="300" as="sourcePoint" />
            <mxPoint x="300" y="160" as="targetPoint" />
          </mxGeometry>
        </mxCell>
        <mxCell id="Erd8H5iG9882OvMsZdw3-5" value="" style="endArrow=none;html=1;rounded=0;" edge="1" parent="1">
          <mxGeometry width="50" height="50" relative="1" as="geometry">
            <mxPoint x="300" y="240" as="sourcePoint" />
            <mxPoint x="300" y="80" as="targetPoint" />
          </mxGeometry>
        </mxCell>
        <mxCell id="Erd8H5iG9882OvMsZdw3-6" value="Pipeline 1 - Integration" style="text;html=1;align=center;verticalAlign=middle;whiteSpace=wrap;rounded=0;" vertex="1" parent="1">
          <mxGeometry x="95" y="50" width="170" height="30" as="geometry" />
        </mxCell>
        <mxCell id="Erd8H5iG9882OvMsZdw3-7" value="Pipeline 2 - Delivery to Test env." style="text;html=1;align=center;verticalAlign=middle;whiteSpace=wrap;rounded=0;" vertex="1" parent="1">
          <mxGeometry x="650" y="50" width="260" height="30" as="geometry" />
        </mxCell>
        <mxCell id="Erd8H5iG9882OvMsZdw3-8" value="Publish Frontend" style="rounded=0;whiteSpace=wrap;html=1;" vertex="1" parent="1">
          <mxGeometry x="360" y="180" width="120" height="60" as="geometry" />
        </mxCell>
        <mxCell id="Erd8H5iG9882OvMsZdw3-9" value="" style="endArrow=classic;html=1;rounded=0;entryX=0;entryY=0.5;entryDx=0;entryDy=0;" edge="1" parent="1" target="Erd8H5iG9882OvMsZdw3-2">
          <mxGeometry width="50" height="50" relative="1" as="geometry">
            <mxPoint x="300" y="160" as="sourcePoint" />
            <mxPoint x="460" y="160" as="targetPoint" />
          </mxGeometry>
        </mxCell>
        <mxCell id="Erd8H5iG9882OvMsZdw3-10" value="" style="endArrow=classic;html=1;rounded=0;entryX=0;entryY=0.5;entryDx=0;entryDy=0;" edge="1" parent="1" target="Erd8H5iG9882OvMsZdw3-8">
          <mxGeometry width="50" height="50" relative="1" as="geometry">
            <mxPoint x="300" y="160" as="sourcePoint" />
            <mxPoint x="460" y="160" as="targetPoint" />
          </mxGeometry>
        </mxCell>
        <mxCell id="Erd8H5iG9882OvMsZdw3-11" value="" style="endArrow=classic;html=1;rounded=0;exitX=1;exitY=0.5;exitDx=0;exitDy=0;" edge="1" parent="1" source="Erd8H5iG9882OvMsZdw3-2">
          <mxGeometry width="50" height="50" relative="1" as="geometry">
            <mxPoint x="580" y="190" as="sourcePoint" />
            <mxPoint x="560" y="160" as="targetPoint" />
          </mxGeometry>
        </mxCell>
        <mxCell id="Erd8H5iG9882OvMsZdw3-13" value="Update Images via Watchtower" style="rounded=0;whiteSpace=wrap;html=1;" vertex="1" parent="1">
          <mxGeometry x="640" y="80" width="120" height="60" as="geometry" />
        </mxCell>
        <mxCell id="Erd8H5iG9882OvMsZdw3-14" value="" style="endArrow=classic;html=1;rounded=0;" edge="1" parent="1">
          <mxGeometry width="50" height="50" relative="1" as="geometry">
            <mxPoint x="480" y="210" as="sourcePoint" />
            <mxPoint x="560" y="160" as="targetPoint" />
          </mxGeometry>
        </mxCell>
        <mxCell id="Erd8H5iG9882OvMsZdw3-15" value="" style="endArrow=classic;html=1;rounded=0;entryX=0;entryY=0.5;entryDx=0;entryDy=0;" edge="1" parent="1" target="Erd8H5iG9882OvMsZdw3-13">
          <mxGeometry width="50" height="50" relative="1" as="geometry">
            <mxPoint x="560" y="160" as="sourcePoint" />
            <mxPoint x="640" y="100" as="targetPoint" />
          </mxGeometry>
        </mxCell>
        <mxCell id="Erd8H5iG9882OvMsZdw3-16" value="Update DB via Flyway" style="rounded=0;whiteSpace=wrap;html=1;" vertex="1" parent="1">
          <mxGeometry x="640" y="180" width="120" height="60" as="geometry" />
        </mxCell>
        <mxCell id="Erd8H5iG9882OvMsZdw3-17" value="" style="endArrow=classic;html=1;rounded=0;entryX=0;entryY=0.5;entryDx=0;entryDy=0;" edge="1" parent="1" target="Erd8H5iG9882OvMsZdw3-16">
          <mxGeometry width="50" height="50" relative="1" as="geometry">
            <mxPoint x="560" y="160" as="sourcePoint" />
            <mxPoint x="460" y="160" as="targetPoint" />
          </mxGeometry>
        </mxCell>
        <mxCell id="Erd8H5iG9882OvMsZdw3-18" value="E2E Test with TestCafe" style="rounded=0;whiteSpace=wrap;html=1;" vertex="1" parent="1">
          <mxGeometry x="840" y="130" width="120" height="60" as="geometry" />
        </mxCell>
        <mxCell id="Erd8H5iG9882OvMsZdw3-20" value="" style="endArrow=classic;html=1;rounded=0;exitX=1;exitY=0.5;exitDx=0;exitDy=0;entryX=0;entryY=0.5;entryDx=0;entryDy=0;" edge="1" parent="1" source="Erd8H5iG9882OvMsZdw3-13" target="Erd8H5iG9882OvMsZdw3-18">
          <mxGeometry width="50" height="50" relative="1" as="geometry">
            <mxPoint x="580" y="210" as="sourcePoint" />
            <mxPoint x="630" y="160" as="targetPoint" />
          </mxGeometry>
        </mxCell>
        <mxCell id="Erd8H5iG9882OvMsZdw3-21" value="" style="endArrow=classic;html=1;rounded=0;exitX=1;exitY=0.5;exitDx=0;exitDy=0;entryX=0;entryY=0.5;entryDx=0;entryDy=0;" edge="1" parent="1" source="Erd8H5iG9882OvMsZdw3-16" target="Erd8H5iG9882OvMsZdw3-18">
          <mxGeometry width="50" height="50" relative="1" as="geometry">
            <mxPoint x="580" y="210" as="sourcePoint" />
            <mxPoint x="630" y="160" as="targetPoint" />
          </mxGeometry>
        </mxCell>
        <mxCell id="Erd8H5iG9882OvMsZdw3-23" value="Performance Tests:&lt;div&gt;Spike/Load/Stress&lt;/div&gt;" style="rounded=0;whiteSpace=wrap;html=1;" vertex="1" parent="1">
          <mxGeometry x="1040" y="130" width="120" height="60" as="geometry" />
        </mxCell>
        <mxCell id="Erd8H5iG9882OvMsZdw3-24" value="" style="endArrow=classic;html=1;rounded=0;exitX=1;exitY=0.5;exitDx=0;exitDy=0;entryX=0;entryY=0.5;entryDx=0;entryDy=0;" edge="1" parent="1" source="Erd8H5iG9882OvMsZdw3-18" target="Erd8H5iG9882OvMsZdw3-23">
          <mxGeometry width="50" height="50" relative="1" as="geometry">
            <mxPoint x="880" y="210" as="sourcePoint" />
            <mxPoint x="930" y="160" as="targetPoint" />
          </mxGeometry>
        </mxCell>
        <mxCell id="Erd8H5iG9882OvMsZdw3-25" value="" style="endArrow=none;html=1;rounded=0;" edge="1" parent="1">
          <mxGeometry width="50" height="50" relative="1" as="geometry">
            <mxPoint x="1220" y="240" as="sourcePoint" />
            <mxPoint x="1220" y="80" as="targetPoint" />
          </mxGeometry>
        </mxCell>
        <mxCell id="Erd8H5iG9882OvMsZdw3-26" value="Publish API" style="rounded=0;whiteSpace=wrap;html=1;" vertex="1" parent="1">
          <mxGeometry x="1280" y="80" width="120" height="60" as="geometry" />
        </mxCell>
        <mxCell id="Erd8H5iG9882OvMsZdw3-27" value="Publish Frontend" style="rounded=0;whiteSpace=wrap;html=1;" vertex="1" parent="1">
          <mxGeometry x="1280" y="180" width="120" height="60" as="geometry" />
        </mxCell>
        <mxCell id="Erd8H5iG9882OvMsZdw3-28" value="" style="endArrow=classic;html=1;rounded=0;exitX=1;exitY=0.5;exitDx=0;exitDy=0;" edge="1" parent="1" source="Erd8H5iG9882OvMsZdw3-26">
          <mxGeometry width="50" height="50" relative="1" as="geometry">
            <mxPoint x="1500" y="190" as="sourcePoint" />
            <mxPoint x="1480" y="160" as="targetPoint" />
          </mxGeometry>
        </mxCell>
        <mxCell id="Erd8H5iG9882OvMsZdw3-29" value="Update Images via Watchtower" style="rounded=0;whiteSpace=wrap;html=1;" vertex="1" parent="1">
          <mxGeometry x="1560" y="80" width="120" height="60" as="geometry" />
        </mxCell>
        <mxCell id="Erd8H5iG9882OvMsZdw3-30" value="" style="endArrow=classic;html=1;rounded=0;" edge="1" parent="1">
          <mxGeometry width="50" height="50" relative="1" as="geometry">
            <mxPoint x="1400" y="210" as="sourcePoint" />
            <mxPoint x="1480" y="160" as="targetPoint" />
          </mxGeometry>
        </mxCell>
        <mxCell id="Erd8H5iG9882OvMsZdw3-31" value="" style="endArrow=classic;html=1;rounded=0;entryX=0;entryY=0.5;entryDx=0;entryDy=0;" edge="1" parent="1" target="Erd8H5iG9882OvMsZdw3-29">
          <mxGeometry width="50" height="50" relative="1" as="geometry">
            <mxPoint x="1480" y="160" as="sourcePoint" />
            <mxPoint x="1560" y="100" as="targetPoint" />
          </mxGeometry>
        </mxCell>
        <mxCell id="Erd8H5iG9882OvMsZdw3-32" value="Update DB via Flyway" style="rounded=0;whiteSpace=wrap;html=1;" vertex="1" parent="1">
          <mxGeometry x="1560" y="180" width="120" height="60" as="geometry" />
        </mxCell>
        <mxCell id="Erd8H5iG9882OvMsZdw3-33" value="" style="endArrow=classic;html=1;rounded=0;entryX=0;entryY=0.5;entryDx=0;entryDy=0;" edge="1" parent="1" target="Erd8H5iG9882OvMsZdw3-32">
          <mxGeometry width="50" height="50" relative="1" as="geometry">
            <mxPoint x="1480" y="160" as="sourcePoint" />
            <mxPoint x="1380" y="160" as="targetPoint" />
          </mxGeometry>
        </mxCell>
        <mxCell id="Erd8H5iG9882OvMsZdw3-34" value="" style="endArrow=classic;html=1;rounded=0;exitX=1;exitY=0.5;exitDx=0;exitDy=0;" edge="1" parent="1" source="Erd8H5iG9882OvMsZdw3-23">
          <mxGeometry width="50" height="50" relative="1" as="geometry">
            <mxPoint x="1110" y="230" as="sourcePoint" />
            <mxPoint x="1220" y="160" as="targetPoint" />
          </mxGeometry>
        </mxCell>
        <mxCell id="Erd8H5iG9882OvMsZdw3-35" value="" style="endArrow=classic;html=1;rounded=0;entryX=0;entryY=0.5;entryDx=0;entryDy=0;" edge="1" parent="1" target="Erd8H5iG9882OvMsZdw3-26">
          <mxGeometry width="50" height="50" relative="1" as="geometry">
            <mxPoint x="1220" y="160" as="sourcePoint" />
            <mxPoint x="1190" y="200" as="targetPoint" />
          </mxGeometry>
        </mxCell>
        <mxCell id="Erd8H5iG9882OvMsZdw3-36" value="" style="endArrow=classic;html=1;rounded=0;entryX=0;entryY=0.5;entryDx=0;entryDy=0;" edge="1" parent="1" target="Erd8H5iG9882OvMsZdw3-27">
          <mxGeometry width="50" height="50" relative="1" as="geometry">
            <mxPoint x="1220" y="160" as="sourcePoint" />
            <mxPoint x="1190" y="200" as="targetPoint" />
          </mxGeometry>
        </mxCell>
        <mxCell id="Erd8H5iG9882OvMsZdw3-37" value="Pipeline 3 - Deploy to Prod" style="text;html=1;align=center;verticalAlign=middle;whiteSpace=wrap;rounded=0;" vertex="1" parent="1">
          <mxGeometry x="1380" y="40" width="190" height="30" as="geometry" />
        </mxCell>
        <mxCell id="Erd8H5iG9882OvMsZdw3-39" value="Addresses" style="shape=table;startSize=30;container=1;collapsible=1;childLayout=tableLayout;fixedRows=1;rowLines=0;fontStyle=1;align=center;resizeLast=1;html=1;" vertex="1" parent="1">
          <mxGeometry x="680" y="400" width="270" height="180" as="geometry" />
        </mxCell>
        <mxCell id="Erd8H5iG9882OvMsZdw3-40" value="" style="shape=tableRow;horizontal=0;startSize=0;swimlaneHead=0;swimlaneBody=0;fillColor=none;collapsible=0;dropTarget=0;points=[[0,0.5],[1,0.5]];portConstraint=eastwest;top=0;left=0;right=0;bottom=1;" vertex="1" parent="Erd8H5iG9882OvMsZdw3-39">
          <mxGeometry y="30" width="270" height="30" as="geometry" />
        </mxCell>
        <mxCell id="Erd8H5iG9882OvMsZdw3-41" value="PK" style="shape=partialRectangle;connectable=0;fillColor=none;top=0;left=0;bottom=0;right=0;fontStyle=1;overflow=hidden;whiteSpace=wrap;html=1;" vertex="1" parent="Erd8H5iG9882OvMsZdw3-40">
          <mxGeometry width="30" height="30" as="geometry">
            <mxRectangle width="30" height="30" as="alternateBounds" />
          </mxGeometry>
        </mxCell>
        <mxCell id="Erd8H5iG9882OvMsZdw3-42" value="Id" style="shape=partialRectangle;connectable=0;fillColor=none;top=0;left=0;bottom=0;right=0;align=left;spacingLeft=6;fontStyle=5;overflow=hidden;whiteSpace=wrap;html=1;" vertex="1" parent="Erd8H5iG9882OvMsZdw3-40">
          <mxGeometry x="30" width="240" height="30" as="geometry">
            <mxRectangle width="240" height="30" as="alternateBounds" />
          </mxGeometry>
        </mxCell>
        <mxCell id="Erd8H5iG9882OvMsZdw3-43" value="" style="shape=tableRow;horizontal=0;startSize=0;swimlaneHead=0;swimlaneBody=0;fillColor=none;collapsible=0;dropTarget=0;points=[[0,0.5],[1,0.5]];portConstraint=eastwest;top=0;left=0;right=0;bottom=0;" vertex="1" parent="Erd8H5iG9882OvMsZdw3-39">
          <mxGeometry y="60" width="270" height="30" as="geometry" />
        </mxCell>
        <mxCell id="Erd8H5iG9882OvMsZdw3-44" value="" style="shape=partialRectangle;connectable=0;fillColor=none;top=0;left=0;bottom=0;right=0;editable=1;overflow=hidden;whiteSpace=wrap;html=1;" vertex="1" parent="Erd8H5iG9882OvMsZdw3-43">
          <mxGeometry width="30" height="30" as="geometry">
            <mxRectangle width="30" height="30" as="alternateBounds" />
          </mxGeometry>
        </mxCell>
        <mxCell id="Erd8H5iG9882OvMsZdw3-45" value="Name - varchar(70)" style="shape=partialRectangle;connectable=0;fillColor=none;top=0;left=0;bottom=0;right=0;align=left;spacingLeft=6;overflow=hidden;whiteSpace=wrap;html=1;" vertex="1" parent="Erd8H5iG9882OvMsZdw3-43">
          <mxGeometry x="30" width="240" height="30" as="geometry">
            <mxRectangle width="240" height="30" as="alternateBounds" />
          </mxGeometry>
        </mxCell>
        <mxCell id="Erd8H5iG9882OvMsZdw3-46" value="" style="shape=tableRow;horizontal=0;startSize=0;swimlaneHead=0;swimlaneBody=0;fillColor=none;collapsible=0;dropTarget=0;points=[[0,0.5],[1,0.5]];portConstraint=eastwest;top=0;left=0;right=0;bottom=0;" vertex="1" parent="Erd8H5iG9882OvMsZdw3-39">
          <mxGeometry y="90" width="270" height="30" as="geometry" />
        </mxCell>
        <mxCell id="Erd8H5iG9882OvMsZdw3-47" value="" style="shape=partialRectangle;connectable=0;fillColor=none;top=0;left=0;bottom=0;right=0;editable=1;overflow=hidden;whiteSpace=wrap;html=1;" vertex="1" parent="Erd8H5iG9882OvMsZdw3-46">
          <mxGeometry width="30" height="30" as="geometry">
            <mxRectangle width="30" height="30" as="alternateBounds" />
          </mxGeometry>
        </mxCell>
        <mxCell id="Erd8H5iG9882OvMsZdw3-48" value="StreetnameAndNumber - varchar(50)" style="shape=partialRectangle;connectable=0;fillColor=none;top=0;left=0;bottom=0;right=0;align=left;spacingLeft=6;overflow=hidden;whiteSpace=wrap;html=1;" vertex="1" parent="Erd8H5iG9882OvMsZdw3-46">
          <mxGeometry x="30" width="240" height="30" as="geometry">
            <mxRectangle width="240" height="30" as="alternateBounds" />
          </mxGeometry>
        </mxCell>
        <mxCell id="Erd8H5iG9882OvMsZdw3-49" value="" style="shape=tableRow;horizontal=0;startSize=0;swimlaneHead=0;swimlaneBody=0;fillColor=none;collapsible=0;dropTarget=0;points=[[0,0.5],[1,0.5]];portConstraint=eastwest;top=0;left=0;right=0;bottom=0;" vertex="1" parent="Erd8H5iG9882OvMsZdw3-39">
          <mxGeometry y="120" width="270" height="30" as="geometry" />
        </mxCell>
        <mxCell id="Erd8H5iG9882OvMsZdw3-50" value="" style="shape=partialRectangle;connectable=0;fillColor=none;top=0;left=0;bottom=0;right=0;editable=1;overflow=hidden;whiteSpace=wrap;html=1;" vertex="1" parent="Erd8H5iG9882OvMsZdw3-49">
          <mxGeometry width="30" height="30" as="geometry">
            <mxRectangle width="30" height="30" as="alternateBounds" />
          </mxGeometry>
        </mxCell>
        <mxCell id="Erd8H5iG9882OvMsZdw3-51" value="Zip - varchar(10)" style="shape=partialRectangle;connectable=0;fillColor=none;top=0;left=0;bottom=0;right=0;align=left;spacingLeft=6;overflow=hidden;whiteSpace=wrap;html=1;" vertex="1" parent="Erd8H5iG9882OvMsZdw3-49">
          <mxGeometry x="30" width="240" height="30" as="geometry">
            <mxRectangle width="240" height="30" as="alternateBounds" />
          </mxGeometry>
        </mxCell>
        <mxCell id="Erd8H5iG9882OvMsZdw3-52" value="" style="shape=tableRow;horizontal=0;startSize=0;swimlaneHead=0;swimlaneBody=0;fillColor=none;collapsible=0;dropTarget=0;points=[[0,0.5],[1,0.5]];portConstraint=eastwest;top=0;left=0;right=0;bottom=0;" vertex="1" parent="Erd8H5iG9882OvMsZdw3-39">
          <mxGeometry y="150" width="270" height="30" as="geometry" />
        </mxCell>
        <mxCell id="Erd8H5iG9882OvMsZdw3-53" value="" style="shape=partialRectangle;connectable=0;fillColor=none;top=0;left=0;bottom=0;right=0;editable=1;overflow=hidden;whiteSpace=wrap;html=1;" vertex="1" parent="Erd8H5iG9882OvMsZdw3-52">
          <mxGeometry width="30" height="30" as="geometry">
            <mxRectangle width="30" height="30" as="alternateBounds" />
          </mxGeometry>
        </mxCell>
        <mxCell id="Erd8H5iG9882OvMsZdw3-54" value="City - varchar(30)" style="shape=partialRectangle;connectable=0;fillColor=none;top=0;left=0;bottom=0;right=0;align=left;spacingLeft=6;overflow=hidden;whiteSpace=wrap;html=1;" vertex="1" parent="Erd8H5iG9882OvMsZdw3-52">
          <mxGeometry x="30" width="240" height="30" as="geometry">
            <mxRectangle width="240" height="30" as="alternateBounds" />
          </mxGeometry>
        </mxCell>
      </root>
    </mxGraphModel>
  </diagram>
</mxfile>
